<svg xmlns="http://www.w3.org/2000/svg" width="42" height="50" viewBox="0 0 42 50">
  <path id="icons8_treatment_1" d="M16,0V2H6.5A2.5,2.5,0,0,0,4,4.5v43A2.5,2.5,0,0,0,6.5,50h37A2.5,2.5,0,0,0,46,47.5V4.5A2.5,2.5,0,0,0,43.5,2H34V0Zm2,2H32V3a1.026,1.026,0,0,0,0,.219V7a1.026,1.026,0,0,0,0,.219V8H18V7.188a1.018,1.018,0,0,0,0-.406V3.188a1.018,1.018,0,0,0,0-.406ZM6.5,4H16V6H9V45H41V6H34V4h9.5a.606.606,0,0,1,.5.5v43a.606.606,0,0,1-.5.5H6.5a.606.606,0,0,1-.5-.5V4.5A.606.606,0,0,1,6.5,4ZM11,8h5v2H34V8h5V43H11Zm15,5v2h9V13Zm-8,2v3H15v2h3v3h2V20h3V18H20V15Zm8,3v2h9V18Zm0,5v2h9V23ZM15,28v2H35V28Zm0,5v2H35V33Zm0,5v2H35V38Z" transform="translate(-4)" fill="#0084ba"/>
</svg>
