<svg xmlns="http://www.w3.org/2000/svg" width="46.045" height="52.041" viewBox="0 0 46.045 52.041">
  <path id="Union_2" data-name="Union 2" d="M-17877.4,429.183a3.385,3.385,0,0,1-.891-1.861,5.094,5.094,0,0,1-1.486-1.142,10.268,10.268,0,0,1-1.861-3.025,21.288,21.288,0,0,1-1.043-3.1c-.107-.445-.166-.827-.221-1.142a3.944,3.944,0,0,1-.1-.746,1.659,1.659,0,0,1,.422-1.065,3.894,3.894,0,0,1,.691-.67,6.193,6.193,0,0,1,.572-.369,1.576,1.576,0,0,1,1.486-1.07,1.587,1.587,0,0,1,1.588,1.587,1.584,1.584,0,0,1-1.588,1.587,1.585,1.585,0,0,1-1.113-.445,2.238,2.238,0,0,0-.4.346.651.651,0,0,0-.076.1c.006.018.031.231.076.474.045.274.117.629.221,1.043a18.522,18.522,0,0,0,.916,2.827,9.365,9.365,0,0,0,1.588,2.6,2.629,2.629,0,0,0,1.959.993,2.629,2.629,0,0,0,1.959-.993,9.365,9.365,0,0,0,1.588-2.6,18.522,18.522,0,0,0,.916-2.827c.1-.414.176-.769.221-1.043.049-.253.076-.444.076-.445a.516.516,0,0,0-.076-.126,2.238,2.238,0,0,0-.4-.346.007.007,0,0,0-.012,0h-.01a1.57,1.57,0,0,1-1.092.445,1.584,1.584,0,0,1-1.588-1.587,1.587,1.587,0,0,1,1.588-1.587,1.581,1.581,0,0,1,1.488,1.07,6.466,6.466,0,0,1,.57.369,3.894,3.894,0,0,1,.691.67,1.66,1.66,0,0,1,.424,1.065,3.965,3.965,0,0,1-.1.746c-.055.315-.113.7-.221,1.142a21.288,21.288,0,0,1-1.043,3.1,10.268,10.268,0,0,1-1.861,3.025,5.094,5.094,0,0,1-1.486,1.142,3.666,3.666,0,0,1-.791,1.735,3.971,3.971,0,0,0,3.914,3.4,3.917,3.917,0,0,0,3.744-2.553,3.175,3.175,0,0,1-2.156-3,3.183,3.183,0,0,1,3.172-3.173,3.185,3.185,0,0,1,3.174,3.173,3.159,3.159,0,0,1-2.576,3.1,5.517,5.517,0,0,1-5.357,4.041A5.572,5.572,0,0,1-17877.4,429.183Zm8.68-2.283a1.575,1.575,0,0,0,1.586,1.587,1.573,1.573,0,0,0,1.588-1.587,1.573,1.573,0,0,0-1.588-1.587A1.575,1.575,0,0,0-17868.717,426.9Zm-34.553-4.935a22.543,22.543,0,0,1-6.732-16.136,23.363,23.363,0,0,1,2.508-10.473l1.781.9a21.359,21.359,0,0,0-2.285,9.574,20.947,20.947,0,0,0,21.023,20.82c.318,0,.652-.009.98-.022a13.145,13.145,0,0,0,.723,1.942c-.566.045-1.146.063-1.7.063A23.009,23.009,0,0,1-17903.27,421.965Zm35.348,4.935a.792.792,0,0,1,.791-.791.794.794,0,0,1,.8.791.8.8,0,0,1-.8.8A.8.8,0,0,1-17867.922,426.9Zm-27.777-13.853,6.783-6.724a1.989,1.989,0,0,1-.064-.494,1.959,1.959,0,0,1,1-1.7V389.966h2v14.159a1.956,1.956,0,0,1,1,1.7,2,2,0,0,1-2,1.982,1.707,1.707,0,0,1-.5-.063l-6.787,6.724Zm28.813-1.029a20.9,20.9,0,0,0,.93-6.189,20.942,20.942,0,0,0-21.018-20.82,20.9,20.9,0,0,0-14.666,5.951h6.674a.993.993,0,0,1,.863.49,1,1,0,0,1,0,1,1,1,0,0,1-.863.49h-10.023v-9.916a.984.984,0,0,1,.781-.989.36.36,0,0,1,.1-.027l.02,0a.656.656,0,0,1,.094,0,1,1,0,0,1,.688.27.988.988,0,0,1,.314.755v6.441a23.042,23.042,0,0,1,7.219-4.706,23.012,23.012,0,0,1,8.8-1.735,23,23,0,0,1,16.289,6.666,22.539,22.539,0,0,1,6.729,16.136,22.54,22.54,0,0,1-1.223,7.371v0A12.75,12.75,0,0,0-17866.887,412.017Z" transform="translate(17910.002 -382.001)" fill="#0084ba"/>
</svg>
