<svg xmlns="http://www.w3.org/2000/svg" width="46.047" height="49.998" viewBox="0 0 46.047 49.998">
  <path id="Union_1" data-name="Union 1" d="M-17880.811,432a.909.909,0,0,1-.918-.909V415.478a.912.912,0,0,1,.918-.909h3.482v-.724h6.6v.724h3.484a.917.917,0,0,1,.918.909V431.09a.914.914,0,0,1-.918.909Zm-.182-16.521V431.09a.217.217,0,0,0,.182.185h13.563a.219.219,0,0,0,.182-.185V415.478a.219.219,0,0,0-.182-.18h-3.484v.724h2.566v14.164h-11.729V416.022h2.566V415.3h-3.482A.217.217,0,0,0-17880.992,415.478Zm1.828,13.979h10.268V416.751h-1.836v.724h-6.6v-.724h-1.836Zm2.566-14.6a.387.387,0,0,1,0,.15v1.3a.387.387,0,0,1,0,.15v.295h5.133v-.285a.273.273,0,0,1,0-.08v-1.373a.273.273,0,0,1,0-.08v-.365h-5.133Zm-26.674,7.112a22.571,22.571,0,0,1-6.73-16.137,23.343,23.343,0,0,1,2.51-10.473l1.779.9a21.322,21.322,0,0,0-2.283,9.574,20.943,20.943,0,0,0,21.018,20.821c.322,0,.654-.01.982-.025a13.4,13.4,0,0,0,.727,1.943c-.57.045-1.145.065-1.709.065A23.011,23.011,0,0,1-17903.271,421.965Zm25.576,6.4v-.724h7.33v.724Zm0-1.813v-.729h7.33v.729Zm0-1.818v-.724h7.33v.724Zm4.033-1.813v-.729h3.3v.729Zm-2.936-.729v-1.089h-1.1v-.724h1.1v-1.089h.732v1.089h1.1v.724h-1.1v1.089Zm2.936-1.089v-.724h3.3v.724Zm0-1.813v-.729h3.3v.729Zm-22.039-6.248,6.781-6.722a2.338,2.338,0,0,1-.062-.494,1.954,1.954,0,0,1,1-1.7V389.967h2v14.159a1.956,1.956,0,0,1,1,1.7,2,2,0,0,1-2.006,1.983,1.75,1.75,0,0,1-.5-.065l-6.781,6.727Zm30.525.155a13.733,13.733,0,0,0-1.709-1.184,21,21,0,0,0,.926-6.188,20.943,20.943,0,0,0-21.02-20.821,20.9,20.9,0,0,0-14.662,5.948h6.668a1.006,1.006,0,0,1,.869.489.993.993,0,0,1,0,1,1,1,0,0,1-.869.489h-10.018v-9.914a.991.991,0,0,1,.781-.989c.029-.01.064-.02.1-.03h.023a.565.565,0,0,1,.094-.005.992.992,0,0,1,.686.27.975.975,0,0,1,.318.754v6.443a22.929,22.929,0,0,1,7.215-4.71,23.06,23.06,0,0,1,8.795-1.733,23.01,23.01,0,0,1,16.3,6.667,22.567,22.567,0,0,1,6.727,16.136,22.774,22.774,0,0,1-1.221,7.372v.005Z" transform="translate(17910.002 -382.001)" fill="#0084ba"/>
</svg>
